# xmcd
#
# Track frame offsets: 
#        150
#        16759
#        31903
#        47220
#        65497
#        80919
#        103195
#        118483
#        141438
#        158877
#        184189
#        203314
#        231018
#        247205
#        264079
#        280882
#        296947
#        312732
#        327883
#        346481
#
# Disc length: 4786 seconds
#
# Revision: 1
# Processed by: cddbd v1.5.2PL0 Copyright (c) Steve Scherf et al.
# Submitted via: ExactAudioCopyFreeDBPlugin 1.0
#
DISCID=3812b014
DTITLE=Ministry of Sound - Throwback R&B Disc 3
DYEAR=2015
DGENRE=R&B
TTITLE0=Ashanti - Foolish
TTITLE1=LL Cool J - Boyz II Men - Hey Lover
TTITLE2=En Vogue - Don't Let Go (Love)
TTITLE3=Tamia - Fabolous - Into You
TTITLE4=Dru Hill - How Deep Is Your Love
TTITLE5=Craig David - Walking Away
TTITLE6=Shola Ama - You Might Need Somebody
TTITLE7=K-Ci and JoJo - All My Life
TTITLE8=Jodeci - Freek'n You
TTITLE9=Silk - Freak Me
TTITLE10=Keith Sweat - Athena Cage - Nobody
TTITLE11=Drizabone Soul Family - Real Love
TTITLE12=Jade - Don't Walk Away
TTITLE13=Adina Howard - Freak Like Me
TTITLE14=Eternal - Stay
TTITLE15=Mase - Total - What You Want
TTITLE16=Ideal - Whatever
TTITLE17=Sunshine Anderson - Heard It All Before
TTITLE18=Jaheim - Just In Case
TTITLE19=D'Angelo - Brown Sugar
EXTD=
EXTT0=
EXTT1=
EXTT2=
EXTT3=
EXTT4=
EXTT5=
EXTT6=
EXTT7=
EXTT8=
EXTT9=
EXTT10=
EXTT11=
EXTT12=
EXTT13=
EXTT14=
EXTT15=
EXTT16=
EXTT17=
EXTT18=
EXTT19=
PLAYORDER=
